<svg width="25" height="25" viewBox="0 0 25 25" fill="none" xmlns="http://www.w3.org/2000/svg">
<path d="M24.8782 5.03949V3.15019V3.11754C24.8131 2.45649 24.374 2.01579 23.7479 1.95051H23.7154H19.9505V1.10175C19.9505 0.505989 19.4463 0 18.8527 0H5.68375C5.09015 0 4.58599 0.505989 4.58599 1.10175V1.95459H1.17075H1.13823C0.512098 1.98315 0.0729963 2.45649 0.00794415 3.11754V3.15019V5.03949C-0.0245819 5.54547 -0.179081 10.4217 5.02509 11.2419C5.84231 13.5393 7.72476 15.3674 10.1073 16.057V19.1745L5.96428 21.1577C5.96428 21.1577 5.93176 21.1577 5.93176 21.1903C5.33816 21.5372 5.02103 22.0432 5.02103 22.6063V23.2347V23.2673C5.08608 23.8957 5.52518 24.3038 6.18383 24.3038H18.3852C19.0438 24.3038 19.5155 23.8957 19.548 23.2673V23.2347V22.6063C19.548 22.0391 19.2349 21.5372 18.6373 21.1903L18.6047 21.1577L14.5268 19.2031V16.0284C16.8158 15.3347 18.6698 13.5434 19.5114 11.2746C21.2678 11.0542 22.6176 10.3932 23.5568 9.29142C25.0083 7.55719 24.8782 5.35369 24.8782 5.03949ZM4.71203 10.0137C0.857688 9.10372 1.13823 5.32512 1.17075 5.13742C1.17075 5.10477 1.17075 5.10477 1.17075 5.07213V3.18283C1.17075 3.15019 1.17075 3.11754 1.17075 3.11754H1.20328H4.59006V8.65894C4.59006 8.87929 4.59006 9.06699 4.62258 9.28734C4.62258 9.31999 4.62258 9.35263 4.62258 9.35263C4.64698 9.57298 4.6795 9.76069 4.71203 10.0137C4.71203 9.98104 4.71203 9.98104 4.71203 10.0137ZM18.3892 22.5736V23.1082H6.15537V22.5736C6.15537 22.4145 6.3424 22.2594 6.46844 22.1941L10.7334 20.1783H13.8071L18.0721 22.1941C18.1982 22.2594 18.3892 22.4186 18.3892 22.5736ZM13.3396 16.3712V19.0154H11.2701V16.3712H13.3396ZM12.2703 15.2082C9.3226 15.2082 6.84655 13.2536 6.02934 10.5809C5.99681 10.4217 5.93582 10.2667 5.9033 10.1075C5.83824 9.82598 5.80978 9.51177 5.77726 9.22613C5.77726 9.19349 5.77726 9.16085 5.77726 9.13228C5.77726 8.97314 5.74473 8.85072 5.74473 8.69158V2.55443V1.16704H18.7592V2.74213V8.63037C18.7592 8.78952 18.7592 8.91193 18.7267 9.07107C18.7267 9.10372 18.7267 9.13636 18.7267 9.16493C18.7267 9.29142 18.6942 9.44648 18.6942 9.57298V9.60563C18.6617 9.76477 18.6291 9.88718 18.6007 10.0463C18.6007 10.079 18.6007 10.1116 18.5681 10.1402C18.5356 10.2667 18.5031 10.3891 18.4746 10.5197C17.6981 13.2251 15.1895 15.2082 12.2703 15.2082ZM22.6542 8.56508C21.9956 9.35263 21.0523 9.85454 19.8326 10.0749V10.0422C19.8651 9.8219 19.8976 9.63419 19.9261 9.41384C19.9261 9.3812 19.9261 9.34855 19.9261 9.34855C19.9586 9.1282 19.9586 8.90785 19.9586 8.6875V3.12162H23.691C23.7235 3.12162 23.7235 3.12162 23.7235 3.12162C23.7235 3.12162 23.7235 3.15427 23.7235 3.18691V5.07621C23.7235 5.10885 23.7235 5.10885 23.7235 5.1415C23.7195 5.16598 23.878 7.08384 22.6542 8.56508ZM11.079 12.4702C10.9855 12.6905 10.7659 12.8497 10.5464 12.8497C10.4813 12.8497 10.4204 12.8497 10.3268 12.817C8.41187 12.0948 8.00529 10.3646 8.03782 9.57706V3.66026C8.03782 3.34605 8.28583 3.09306 8.60296 3.09306C8.91603 3.09306 9.1681 3.34197 9.1681 3.66026V9.60971C9.1681 9.70356 9.10305 11.1522 10.705 11.7479C11.0505 11.8377 11.205 12.1845 11.079 12.4702Z" fill="#FDE406"/>
</svg>
