<svg width="17" height="25" viewBox="0 0 17 25" fill="none" xmlns="http://www.w3.org/2000/svg">
<path d="M15.8667 10.5114V12.7841L13.8833 13.9205L12.75 15.9091H12.4667V24.4318C12.4667 24.6023 12.41 24.7159 12.2967 24.8295C12.1833 24.9432 12.07 25 11.9 25C11.73 25 11.56 24.8864 11.4467 24.7727L8.5 21.8182L5.55333 24.7727C5.44 24.8864 5.27 25 5.1 25C4.93 25 4.81667 24.9432 4.70333 24.8295C4.59 24.7159 4.53333 24.6023 4.53333 24.4318V15.9091H4.25L3.11667 13.9205L1.13333 12.7841V10.5114L0 8.52273L1.13333 6.53409V4.26136L3.11667 3.125L4.25 1.13636H6.51667L8.5 0L10.4833 1.13636H12.75L13.8833 3.125L15.8667 4.26136V6.53409L17 8.52273L15.8667 10.5114ZM5.66667 15.9091V23.0682L8.04667 20.6818L8.10333 20.625C8.21667 20.5114 8.38667 20.4545 8.5 20.4545C8.67 20.4545 8.78333 20.5114 8.89667 20.625L8.95333 20.6818L11.3333 23.0682V15.9091H10.4833L8.5 17.0455L6.51667 15.9091H5.66667ZM14.7333 6.875V4.94318L13.09 3.97727L12.1267 2.27273H10.2L8.5 1.30682L6.85667 2.27273H4.93L3.96667 3.97727L2.26667 4.94318V6.875L1.30333 8.52273L2.26667 10.2273V12.1591L3.96667 13.125L4.93 14.7727H6.85667L8.5 15.7386L10.2 14.7727H12.1267L13.09 13.125L14.7333 12.1591V10.2273L15.6967 8.57955L14.7333 6.875Z" fill="#FDE406"/>
<circle cx="8.5" cy="8.5" r="2" stroke="#FDE406"/>
</svg>
