<svg width="17" height="14" viewBox="0 0 17 14" fill="none" xmlns="http://www.w3.org/2000/svg">
<path d="M14.6818 0H2.31818C1.04318 0 0 1.05 0 2.33333V11.6667C0 12.95 1.04318 14 2.31818 14H14.6818C15.9568 14 17 12.95 17 11.6667V2.33333C17 1.05 15.9568 0 14.6818 0ZM14.6818 1.55556C14.7784 1.55556 14.8557 1.575 14.933 1.59444L8.5 6.78611L2.06705 1.59444C2.14432 1.575 2.22159 1.55556 2.31818 1.55556H14.6818ZM14.6818 12.4444H2.31818C1.89318 12.4444 1.54545 12.0944 1.54545 11.6667V3.16944L8.01705 8.38056C8.15227 8.49722 8.32614 8.55556 8.5 8.55556C8.67386 8.55556 8.84773 8.49722 8.98295 8.38056L15.4545 3.16944V11.6667C15.4545 12.0944 15.1068 12.4444 14.6818 12.4444Z" fill="#FDE406"/>
</svg>
