<svg width="26" height="26" viewBox="0 0 26 26" fill="none" xmlns="http://www.w3.org/2000/svg">
<path d="M18.5848 25.0465C17.6536 25.0405 16.7224 24.9212 15.8151 24.6946C12.6874 23.943 9.46406 22.0284 6.74218 19.3026C4.0203 16.5767 2.10423 13.3618 1.34616 10.2363C0.558249 6.95581 1.12531 4.14648 2.94587 2.32728L3.46517 1.80835C4.45007 0.830158 6.03783 0.830158 7.02273 1.80835L10.0132 4.79066C10.9981 5.77482 10.9981 7.36737 10.0132 8.34557L8.24638 10.1111C9.09398 11.5963 10.246 13.0815 11.607 14.4414C12.9679 15.8013 14.4602 16.9525 15.9405 17.7995L17.7133 16.0399C18.6982 15.0558 20.2859 15.0558 21.2708 16.0399L24.2613 19.0282C25.2462 20.0123 25.2462 21.5989 24.2613 22.5831L23.742 23.102C22.4527 24.3904 20.6739 25.0465 18.5848 25.0465ZM5.24395 2.85813C5.05294 2.85813 4.8679 2.93567 4.73061 3.07285L4.21131 3.59177C2.84439 4.95767 2.44447 7.17054 3.08912 9.82479C3.7696 12.6341 5.51256 15.5568 8.00762 18.05C10.5027 20.5432 13.4215 22.2849 16.2389 22.9648C18.8952 23.603 21.1097 23.2094 22.4766 21.8435L22.9959 21.3246C23.2764 21.0442 23.2764 20.5849 22.9959 20.2986L20.0054 17.3104C19.7249 17.03 19.2652 17.03 18.9787 17.3104L16.7403 19.5471C16.4658 19.8215 16.042 19.8871 15.6957 19.7081C13.8573 18.7598 12.0069 17.3819 10.3475 15.7119C8.68809 14.0418 7.30327 12.1987 6.35419 10.3676C6.17512 10.0216 6.24078 9.59813 6.51536 9.32376L8.75375 7.08703C9.03429 6.8067 9.03429 6.34742 8.75375 6.06112L5.75729 3.06689C5.62597 2.93567 5.44093 2.85813 5.24395 2.85813Z" fill="#FDE406" stroke="#151515" stroke-width="0.6"/>
</svg>
