<svg width="23" height="20" viewBox="0 0 23 20" fill="none" xmlns="http://www.w3.org/2000/svg">
<path d="M0.774005 11.9093H2.60212V19.2172C2.60212 19.65 2.95208 20 3.38494 20H8.73574C9.16859 20 9.51856 19.65 9.51856 19.2172V13.8664H12.7788V19.2172C12.7788 19.65 13.1287 20 13.5616 20H18.6499C19.0828 20 19.4327 19.65 19.4327 19.2172V11.9093H21.6523C21.9654 11.9093 22.2509 11.7159 22.3706 11.4258C22.4857 11.1403 22.4213 10.7996 22.2002 10.5785L11.9959 0.231512C11.6966 -0.0678016 11.1993 -0.081616 10.9 0.217697L0.239846 10.5647C0.0050004 10.7858 -0.0594671 11.1265 0.0556534 11.4258C0.175379 11.7251 0.460877 11.9093 0.774005 11.9093ZM11.4203 1.88925L19.7689 10.3437H18.6499C18.2171 10.3437 17.8671 10.6983 17.8671 11.1265V18.4344H14.3444V13.0836C14.3444 12.6507 13.9944 12.3007 13.5616 12.3007H8.73574C8.30288 12.3007 7.95292 12.6507 7.95292 13.0836V18.4344H4.16776V11.1265C4.16776 10.6937 3.81319 10.3437 3.38494 10.3437H2.70803L11.4203 1.88925Z" fill="black"/>
</svg>
