<svg width="20" height="28" viewBox="0 0 20 28" fill="none" xmlns="http://www.w3.org/2000/svg">
<path d="M16.25 15H3.75V16.25H16.25V15Z" fill="black"/>
<path d="M16.25 18.75H3.75V20H16.25V18.75Z" fill="black"/>
<path d="M11.25 3.75H3.75V5H11.25V3.75Z" fill="black"/>
<path d="M16.25 22.5H3.75V23.75H16.25V22.5Z" fill="black"/>
<path d="M16.25 11.25H3.75V12.5H16.25V11.25Z" fill="black"/>
<path d="M19.3924 27.5C19.3924 27.5 20 27.5 20 26.8889V5.5L14.5451 0H0.607639C0.607639 0 0 0 0 0.611111V26.8889C0 27.5 0.607639 27.5 0.607639 27.5H19.3924ZM1.25 1.25H13.75V5C13.75 6.25 15 6.25 15 6.25H18.75V26.25H1.25V1.25Z" fill="black"/>
<path d="M16.25 7.5H3.75V8.75H16.25V7.5Z" fill="black"/>
</svg>
